<?xml version="1.0" encoding="UTF-8"?>
<svg id="Layer_1" data-name="Layer 1" xmlns="http://www.w3.org/2000/svg" viewBox="0 0 406.94 178.3">
  <defs>
    <style>
      .cls-1 {
        fill: #57a486;
        stroke: #57a486;
        stroke-miterlimit: 10;
        stroke-width: 3px;
      }
    </style>
  </defs>
  <path class="cls-1" d="M156.35,1.63c-29.11,11.38-59.16,1.81-88.96,3.84C38.74,7.43,18.68,24.72,1.76,46.6c-1.11,1.43,1.64,1.75,2.4.77,10.21-13.21,21.63-26.06,36.97-33.35,19.15-9.1,38.38-6.01,58.67-4.52,18.86,1.39,39.92.71,57.8-6.28,1.85-.72.21-2.16-1.25-1.59h0Z"/>
  <path class="cls-1" d="M178.69,15.3c-.74-2.11-2.56-3.46-5.41-4.02-4.09-.8-8.9,2.45-10.88,3.96-.31.13-.54.24-.54.24-22.49,20.24-37.09,45.5-50.53,71.51-3.3,2.65-6.6,5.28-9.89,7.89-7.27,5.78-14.78,11.75-22.05,17.74l-3.82,3.16c-9.88,8.2-20.09,16.68-31.48,22.88-1.93,1.05-6.19,3.56-8.26,1.88-2.18-1.78-1.73-7.26-1.49-9.67.67-6.72,2.88-13.18,5.37-19.45,6.71-16.86,15.6-32.78,25-48.3,7.06-11.66,14.44-23.14,22.11-34.41,1.93-2.84,3.88-5.67,6.1-8.29.85-1.01,1.75-2.01,2.2-3.25s.3-2.79-.71-3.64c-.98-.82-2.5-.72-3.61-.09s-1.93,1.67-2.71,2.69c-15.1,19.9-27.55,41.64-40.44,63.04-5.3,8.79-10.71,17.58-14.65,27.06s-6.4,19.77-5.5,30c.39,4.39,2.52,8.52,7.52,7.16,8-2.17,15.1-6.22,21.83-10.97,6.82-4.81,13.26-10.15,19.68-15.48l3.82-3.16c7.25-5.99,14.76-11.95,22.03-17.73,2.42-1.92,4.84-3.85,7.27-5.79-4.58,8.94-9.06,17.95-13.7,26.85-1.44,2.76,4.4,2.56,5.48.48,6.18-10.33,12.5-22.97,19.87-36.74,17.57-14.36,34.83-29.56,49.62-46.96.41-.49,10.1-11.99,7.79-18.59ZM176.53,22.04c-1.57,3.9-3.87,7.57-6.56,11.05-5.09,6.57-11.56,12.45-17.12,17.9-9.46,9.27-19.48,17.96-29.7,26.38,1.67-1.38,2.9-5.31,3.98-7.23,1.51-2.7,3.04-5.39,4.6-8.06,3.26-5.58,6.63-11.08,10.17-16.49,3.64-5.56,7.44-11.02,11.44-16.33,3.37-4.48,6.02-9.83,10.38-13.47,3.35-2.79,12.34-5.87,13.69.6.4,1.9-.16,3.86-.88,5.66Z"/>
  <path class="cls-1" d="M267.71,67.69c-14.54,25.97-29.45,65.96-59.54,103.19-2.26,2.8,2.02.61,2.02.61,30.33-28.9,45.29-66.97,63.01-103.47,1.36-2.79-4.47-2.43-5.5-.33h0Z"/>
  <path class="cls-1" d="M227.37,111.14c-7.12.68.29-13.88,1.39-16.31,2.31-5.1,4.89-10.08,7.72-14.91,1.03-1.75,8.53-11.29,5.73-12.27-3.44-1.2-7.08,3.91-8.74,6.09-3.08,4.04-23.4,41.23-6.22,39.57,1.98-.19,1.77-2.32.11-2.17Z"/>
  <path class="cls-1" d="M226.84,114.49c-.32,0-.63-.03-.93-.09-2.23-.46-3.36-2.52-3.68-3.66l2.89-.8-1.44.4,1.44-.41s.41,1.35,1.41,1.54c.75.15,3-.11,7.53-5.78,9.29-11.61,34.22-37.27,34.48-37.53l2.15,2.09c-.25.26-25.09,25.81-34.28,37.31-3.72,4.65-6.86,6.93-9.56,6.93Z"/>
  <path class="cls-1" d="M200.17,176.8c-1.49,0-2.72-.62-3.65-1.85-.65-.86-.93-1.89-1.12-2.87-2.47-12.34,5.12-22.7,12.88-31.19,10.78-11.8,24.65-20.35,38.07-28.62,2.19-1.35,4.37-2.69,6.53-4.04,4.76-2.98,9.53-5.94,14.3-8.9,11.36-7.05,23.1-14.33,34.47-21.78l.82,1.25c-11.38,7.46-23.13,14.75-34.5,21.8-4.77,2.96-9.54,5.92-14.3,8.9-2.17,1.36-4.35,2.7-6.54,4.05-13.33,8.21-27.12,16.71-37.75,28.35-7.5,8.22-14.86,18.2-12.52,29.89.16.81.38,1.64.85,2.26.65.86,1.53,1.25,2.5,1.26,4.36-.06,11.02-7.43,12.95-10.12l1.21.87c-1.62,2.25-8.77,10.67-14.15,10.74h-.07Z"/>
  <path class="cls-1" d="M353.55,79.25c-.19.17-18.31,15.98-29.36,15.98-.28,0-.56-.01-.84-.03-1.23-.1-2.28-.4-3.19-.93,1.51-1.58,2.97-3.14,4.36-4.62l2.7-2.86c7.93-8.37,10.34-16.22,10-20.41-.13-1.63-.67-2.84-1.57-3.53-3.34-2.55-9.71,1.1-12.38,3.63-.16.15-15.94,15.29-5.98,27.29.2.24.41.46.62.67-3.64,3.79-7.36,7.52-11.33,10.97-1.78,1.55-3.61,3.04-5.55,4.4-1.96,1.37-4.38,3.31-6.9,3.32-4.33.02-2.79-5.96-1.99-8.39,1.29-3.9,2.89-7.69,4.65-11.4,2.87-6.06,6.15-11.94,9.81-17.56,1.63-2.52,3.35-5,4.51-7.78.34-.82.52-1.97-.26-2.4-.33-.18-.74-.15-1.1-.06-1.4.33-2.54,1.35-3.53,2.39-2.26,2.37-4.14,5.06-5.93,7.81-6.05,9.31-11.09,19.54-12.65,30.53-.39,2.78-.39,6.05,1.74,7.88,2.1,1.81,5.38,1.35,7.81.03,1.8-.98,3.33-2.34,4.99-3.53,1.72-1.23,3.4-2.41,5.01-3.79,2.09-1.79,4.1-3.67,6.07-5.59.52-.5,5.67-5.99,5.82-5.89,1.17.75,2.55,1.19,4.13,1.32,11.63.9,30.5-15.61,31.3-16.32l-.99-1.12ZM318.96,93.36c-.18-.17-.35-.35-.51-.55-9.08-10.93,5.7-25.1,5.85-25.24,1.85-1.75,5.76-4.09,8.53-4.09.74,0,1.4.17,1.92.56.54.41.89,1.28.98,2.46.34,4.19-2.5,11.76-9.6,19.26l-2.7,2.86c-1.4,1.49-2.9,3.09-4.47,4.74Z"/>
  <g>
    <path class="cls-1" d="M186.69,75.71c-15.44,12.91-28.5,29.39-46.86,37.64-.94.42-2.17.77-2.88.03-.67-.7-.36-1.85.03-2.74,5.13-11.7,16.17-20.42,19.57-32.73.51-1.84.83-3.78.42-5.64-.78-3.54-3.68-4.81-6.97-3.8-4.63,1.42-8.23,4.99-11.63,8.44-12.19,12.36-24.34,24.76-36.94,36.71-.69.66-1.4,1.34-1.81,2.2s-.43,1.98.19,2.71c2.07-1.24,3.72-3.04,5.34-4.82,12.54-13.82,24.88-28.17,38.95-40.47,1.86-1.62,5.48-3.79,7.61-1.49,1.61,1.74.56,4.54-.64,6.58-5.87,9.93-14.11,18.35-18.52,29.14-.86,2.1-1.49,4.72-.04,6.47,1.01,1.22,2.74,1.58,4.31,1.51,2.89-.13,5.6-1.41,8.13-2.81,16.31-9.06,28.53-23.83,42.76-35.9-.34-.35-.68-.69-1.03-1.04Z"/>
    <path class="cls-1" d="M236.54,74.01l-14.99,12.48c-.31.26-31.4,26.31-40.71,31.13-2.67,1.38-4.69,1.66-5.99.82-1.81-1.17-.32-4.51.23-6.01.97-2.66,2.36-5.27,4.24-7.39,1.82-2.05,3.94-3.82,5.91-5.72,2.13-2.06,4.17-4.31,5.34-7.07.87-2.04,1.19-4.48.1-6.41-.85-1.51-2.41-2.46-3.59-3.73-2.51-2.71-3.11-6.78-2.4-10.41.61-3.1,2.14-6,4.27-8.33,2.23-2.44,5.52-4.48,8.66-5.48,2.36-.75,3.47.89,2.12,2.92-3.52,5.28-8.6,10.89-13.36,15.08-.17.15.52-.48.48-.25-.06.4-.37,1.23.04,1.18s.13.5.43.22c3.18-2.88,7.76-7.14,10.45-10.5,1.45-1.81,6.33-7.49,3.15-9.66-1.3-.89-3.14-.94-4.66-.96-5.24-.09-11.04,3.19-14.29,7.21-2.99,3.7-4.15,9.12-1.97,13.35.89,1.73,2.27,3.16,3.76,4.41,1.25,1.05,2.69,2.13,3,3.74.29,1.5-.53,2.98-1.47,4.18-1.96,2.5-4.57,4.4-6.81,6.66-3.42,3.46-5.95,7.81-7.26,12.5-.55,1.95-.89,4-.64,6.02.3,2.33,1.45,4.42,3.43,5.71.73.48,1.59.71,2.57.71,1.4,0,3.05-.49,4.93-1.46,9.45-4.9,39.7-30.24,40.98-31.31l14.99-12.47-.96-1.15Z"/>
  </g>
  <path class="cls-1" d="M404.17,45.23c-1.85-3.4-5.58-5.68-9.44-6.33-4.37-.74-8.87.31-12.97,2.01-5.48,2.28-10.53,5.78-14.11,10.51-3.58,4.73-5.61,10.75-5.03,16.65.06.57.29,1.29.86,1.32.67.03.91-.87.93-1.55.25-6.68,2.92-13.25,7.41-18.21,4.48-4.96,10.75-8.28,17.37-9.2,1.87-.26,3.88-.31,5.53.61,1.86,1.04,2.89,3.13,3.38,5.2,1.24,5.22-.34,10.81-3.26,15.31-4.29,6.62-11.18,13.22-19.13,14.86-.68.14-1.37.25-1.99.55-4.01,1.9,3.03,3.49,4.24,4,3.44,1.46,4.38,4.32,4.38,7.85,0,7.5-3.68,14.85-7.64,21.04-3.08,4.8-6.93,9.11-11.37,12.68-3.75,3.02-10.11,7.97-15.15,5.3-5.29-2.8-4.49-10.78-2.9-15.49,3.41-10.08,12.04-17.7,21.61-22.36.75-.37,1.65-1.1,1.26-1.84-.36-.66-1.34-.47-2.02-.17-9.12,3.98-16.79,11.18-21.35,20.03-1.61,3.13-2.85,6.51-3.03,10.03-.18,3.51.8,7.18,3.18,9.78,6.78,7.41,17.26,2.67,23.88-2.15,3.25-2.37,6.2-5.15,8.74-8.27,4.18-5.13,7.3-11.07,9.44-17.33,1.69-4.97,2.87-10.92-.08-15.68-.98-1.58-2.36-2.87-3.93-3.85-1.47-.93-3.08-1.64-4.75-2.11,10.32-4.51,21.16-10.27,25.73-21.24,1.39-3.34,2.06-7.17.83-10.58-.17-.48-.38-.94-.62-1.39Z"/>
</svg>